<svg width="22" height="20" viewBox="0 0 22 20" fill="none" xmlns="http://www.w3.org/2000/svg">
<path d="M20 2V1C20 0.45 19.55 0 19 0C18.45 0 18 0.45 18 1V2H17C16.45 2 16 2.45 16 3C16 3.55 16.45 4 17 4H18V5C18 5.55 18.45 6 19 6C19.55 6 20 5.55 20 5V4H21C21.55 4 22 3.55 22 3C22 2.45 21.55 2 21 2H20ZM16 6H15C14.45 6 14 5.55 14 5V2H7.88C7.32 2 6.78 2.24 6.4 2.65L5.17 4H2C0.9 4 0 4.9 0 6V18C0 19.1 0.9 20 2 20H18C19.1 20 20 19.1 20 18V8H17C16.45 8 16 7.55 16 7V6ZM10 16.5C7.52 16.5 5.5 14.48 5.5 12C5.5 9.52 7.52 7.5 10 7.5C12.48 7.5 14.5 9.52 14.5 12C14.5 14.48 12.48 16.5 10 16.5Z" fill="white"/>
</svg>
