<svg width="20" height="24" viewBox="0 0 20 24" fill="none" xmlns="http://www.w3.org/2000/svg">
<path d="M9.66699 12.9167C11.4619 12.9167 12.917 11.4616 12.917 9.66665C12.917 7.87173 11.4619 6.41665 9.66699 6.41665C7.87207 6.41665 6.41699 7.87173 6.41699 9.66665C6.41699 11.4616 7.87207 12.9167 9.66699 12.9167Z" stroke="#F7931E" stroke-width="2" stroke-linecap="round" stroke-linejoin="round"/>
<path d="M9.66667 1C7.36812 1 5.16372 1.91309 3.53841 3.53841C1.91309 5.16372 1 7.36812 1 9.66667C1 11.7163 1.4355 13.0575 2.625 14.5417L9.66667 22.6667L16.7083 14.5417C17.8978 13.0575 18.3333 11.7163 18.3333 9.66667C18.3333 7.36812 17.4202 5.16372 15.7949 3.53841C14.1696 1.91309 11.9652 1 9.66667 1V1Z" stroke="#F7931E" stroke-width="2" stroke-linecap="round" stroke-linejoin="round"/>
</svg>
